# xmcd
#
# Track frame offsets:
#	150
#	25890
#	46886
#	66017
#	93526
#	125884
#	142768
#	168179
#	199557
#	216981
#
# Disc length: 3189 seconds
#
# Revision: 1
# Processed by: cddbd v1.5.1PL0 Copyright (c) Steve Scherf et al.
# Submitted via: EasyCDDAExtractor 5.1.0
#
DISCID=8a0c730a
DTITLE=Brian Young - The blues man is here tonight
DYEAR=1998
DGENRE=Blues
TTITLE0=Hug me, ove me
TTITLE1=The blues man is here tonight pt. 1
TTITLE2=The blues man is here tonight pt. 2
TTITLE3=Last choice
TTITLE4=Leave me alone
TTITLE5=Break away
TTITLE6=All you do is give me the blues
TTITLE7=City of deception
TTITLE8=Brian's shuffle
TTITLE9=I'm your fieman
EXTD=
EXTT0=
EXTT1=
EXTT2=
EXTT3=
EXTT4=
EXTT5=
EXTT6=
EXTT7=
EXTT8=
EXTT9=
PLAYORDER=
